# xmcd CD database generated by RipIT
#
# Track frame offsets:
# 150
# 34215
# 62790
# 93315
# 118817
# 137567
# 173792
# 204767
# 237617
# 258095
# 271220
#
# Disc length: 3968 seconds
#
# Revision: 1
# Processed by: cddbd v1.5.1PL2 Copyright (c) Steve Scherf et al.
# Submitted via: RipIT 3.3.3 www.suwald.com/ripit/ripit.html at Sa Apr 29 20:54:14 CEST 2006
#
DISCID=970f7e0b
DTITLE=Lee_Konitz_with_Alan_Broadbent - More Live-Lee
DYEAR=2004
DGENRE=Jazz
TTITLE0=Invitation
TTITLE1=Body And Soul
TTITLE2=Thingin'
TTITLE3=You Stepped Out Of A Dream
TTITLE4=Nothin'
TTITLE5=I Can't Get Started
TTITLE6=Lennie's
TTITLE7=How Deep Is The Ocean
TTITLE8=You Go To My Head
TTITLE9=Bending Broadly
TTITLE10=Just Friends
EXTD=YEAR: 2004\n
EXTT0=
EXTT1=
EXTT2=
EXTT3=
EXTT4=
EXTT5=
EXTT6=
EXTT7=
EXTT8=
EXTT9=
EXTT10=
PLAYORDER=
